<svg width="100.000000" height="24.000000" viewBox="0 0 100 24" fill="none" xmlns="http://www.w3.org/2000/svg" xmlns:xlink="http://www.w3.org/1999/xlink">
	<desc>
			Created with Pixso.
	</desc>
	<defs>
		<clipPath id="clip568_2187">
			<rect id="Icon / Chevron Right" width="24.000000" height="24.000000" transform="translate(76.000000 0.000000)" fill="white" fill-opacity="0"/>
		</clipPath>
	</defs>
	<path id="Button" d="M2.32 16.5L1.09 16.5L1.09 6.6L4.45 6.6C6.78 6.6 7.83 7.88 7.83 9.65C7.83 10.95 7.24 11.98 5.98 12.42L8.21 16.5L6.78 16.5L4.71 12.64C4.63 12.65 4.55 12.65 4.47 12.65L2.32 12.65L2.32 16.5ZM29.57 15.36C29.31 15.77 28.84 16.65 27.41 16.65C25.57 16.65 24.26 15.16 24.26 12.8C24.26 10.45 25.57 8.98 27.43 8.98C28.86 8.98 29.33 9.85 29.57 10.25L29.66 10.25L29.66 6.6L30.85 6.6L30.85 16.5L29.7 16.5L29.7 15.36L29.57 15.36ZM2.32 7.69L2.32 11.53L4.41 11.53C5.98 11.53 6.61 10.82 6.61 9.65C6.61 8.46 5.98 7.69 4.4 7.69L2.32 7.69ZM57.19 16.5L56.02 16.5L56.02 9.07L57.15 9.07L57.15 10.21L57.23 10.21C57.51 9.45 58.27 8.95 59.15 8.95C59.32 8.95 59.62 8.96 59.76 8.98L59.76 10.16C59.68 10.14 59.35 10.08 59.05 10.08C57.98 10.08 57.19 10.82 57.19 11.82L57.19 16.5ZM15.48 14.76C15.12 15.88 14.03 16.65 12.5 16.65C10.35 16.65 9.03 15.13 9.03 12.84C9.03 10.56 10.37 8.98 12.39 8.98C13.95 8.98 15.59 9.93 15.59 12.68L15.59 13.17L10.2 13.17C10.26 14.75 11.17 15.61 12.5 15.61C13.39 15.61 13.95 15.22 14.22 14.76L15.48 14.76ZM19.29 16.67C17.88 16.67 16.76 15.84 16.76 14.39C16.76 12.68 18.27 12.3 19.55 12.2C20.02 12.17 21.23 12.11 21.56 12.09L21.56 11.49C21.56 10.55 21 10 19.88 10C18.94 10 18.38 10.44 18.21 11L16.98 11C17.13 9.81 18.29 8.98 19.94 8.98C20.91 8.98 22.72 9.26 22.72 11.6L22.72 16.5L21.56 16.5L21.56 15.48L21.51 15.48C21.26 15.99 20.58 16.67 19.29 16.67ZM37.57 16.5L36.4 16.5L36.4 9.07L37.53 9.07L37.53 10.23L37.63 10.23C37.94 9.44 38.65 8.98 39.62 8.98C40.59 8.98 41.25 9.44 41.61 10.23L41.69 10.23C42.07 9.47 42.85 8.98 43.92 8.98C45.24 8.98 46.19 9.78 46.19 11.53L46.19 16.5L45.01 16.5L45.01 11.55C45.01 10.45 44.31 10.03 43.51 10.03C42.47 10.03 41.88 10.73 41.88 11.67L41.88 16.5L40.69 16.5L40.69 11.42C40.69 10.59 40.09 10.03 39.24 10.03C38.35 10.03 37.57 10.78 37.57 11.86L37.57 16.5ZM54.47 12.82C54.47 15.13 53.12 16.65 51.11 16.65C49.08 16.65 47.72 15.13 47.72 12.82C47.72 10.51 49.08 8.98 51.11 8.98C53.12 8.98 54.47 10.51 54.47 12.82ZM66.77 14.76C66.41 15.88 65.32 16.65 63.79 16.65C61.64 16.65 60.32 15.13 60.32 12.84C60.32 10.56 61.66 8.98 63.68 8.98C65.24 8.98 66.88 9.93 66.88 12.68L66.88 13.17L61.49 13.17C61.55 14.75 62.46 15.61 63.79 15.61C64.68 15.61 65.24 15.22 65.51 14.76L66.77 14.76ZM12.39 10.01C11.1 10.01 10.28 11.03 10.21 12.17L14.4 12.17C14.4 10.93 13.61 10.01 12.39 10.01ZM48.89 12.82C48.89 14.29 49.59 15.61 51.11 15.61C52.6 15.61 53.29 14.29 53.29 12.82C53.29 11.34 52.6 10.01 51.11 10.01C49.59 10.01 48.89 11.34 48.89 12.82ZM63.68 10.01C62.39 10.01 61.57 11.03 61.5 12.17L65.69 12.17C65.69 10.93 64.9 10.01 63.68 10.01ZM25.45 12.78C25.45 14.36 26.17 15.59 27.58 15.59C28.93 15.59 29.7 14.44 29.7 12.78C29.7 11.14 28.96 10.03 27.58 10.03C26.16 10.03 25.45 11.23 25.45 12.78ZM19.69 13.19C18.62 13.25 17.94 13.64 17.94 14.44C17.94 15.22 18.6 15.62 19.5 15.62C20.82 15.62 21.56 14.73 21.56 13.8L21.56 13.05C21.21 13.08 20.04 13.17 19.69 13.19Z" fill="#1D1E1C" fill-opacity="1.000000" fill-rule="evenodd"/>
	<rect id="Icon / Chevron Right" width="24.000000" height="24.000000" transform="translate(76.000000 0.000000)" fill="#FFFFFF" fill-opacity="0"/>
	<g clip-path="url(#clip568_2187)">
		<path id="Vector" d="M90.96 11.14C91.18 11.36 91.18 11.71 90.96 11.93L85.22 17.67C85 17.89 84.64 17.89 84.43 17.67L84.16 17.4C83.94 17.18 83.94 16.83 84.16 16.61L89.23 11.54L84.16 6.46C83.94 6.24 83.94 5.89 84.16 5.67L84.43 5.4C84.64 5.18 85 5.18 85.22 5.4L90.96 11.14Z" fill="#000000" fill-opacity="1.000000" fill-rule="evenodd"/>
	</g>
</svg>
