<svg width="145.000000" height="47.000000" viewBox="0 0 145 47" fill="none" xmlns="http://www.w3.org/2000/svg" xmlns:xlink="http://www.w3.org/1999/xlink">
	<desc>
			Created with Pixso.
	</desc>
	<defs/>
	<rect id="button" rx="23.000000" width="144.000000" height="46.000000" transform="translate(0.500000 0.000000)" fill="#1D1E1C" fill-opacity="1.000000"/>
	<path id="Claim Your Spot" d="M98.62 20.07L98.17 20.07C98.07 18.77 97.09 17.87 95.61 17.87C94.12 17.87 93.05 18.77 93.05 20.02C93.05 21.03 93.79 21.67 95.1 22.07L96.21 22.41C97.83 22.89 98.75 23.64 98.75 24.95C98.75 26.51 97.47 27.66 95.53 27.66C93.67 27.66 92.47 26.62 92.37 25.13L92.82 25.13C92.92 26.39 93.97 27.22 95.53 27.22C97.18 27.22 98.3 26.31 98.3 24.95C98.3 23.9 97.61 23.3 96.09 22.83L94.95 22.49C93.4 22.01 92.6 21.21 92.6 20.03C92.6 18.54 93.89 17.45 95.61 17.45C97.35 17.45 98.52 18.55 98.62 20.07ZM33.77 20.69L33.31 20.69C33.05 19.37 31.86 17.9 29.94 17.9C27.96 17.9 26.25 19.55 26.25 22.55C26.25 25.57 27.96 27.19 29.94 27.19C31.86 27.19 33.05 25.73 33.31 24.41L33.77 24.41C33.51 25.9 32.23 27.63 29.94 27.63C27.5 27.63 25.8 25.59 25.8 22.55C25.8 19.5 27.5 17.46 29.94 17.46C32.23 17.46 33.51 19.18 33.77 20.69ZM35.67 17.6L36.12 17.6L36.12 27.5L35.67 27.5L35.67 17.6ZM65.76 22.9L62.2 17.6L62.75 17.6L65.96 22.41L66.02 22.41L69.23 17.6L69.78 17.6L66.21 22.9L66.21 27.5L65.76 27.5L65.76 22.9ZM46.63 18.35C46.63 18.57 46.45 18.73 46.23 18.73C46.03 18.73 45.85 18.57 45.85 18.35C45.85 18.14 46.03 17.97 46.23 17.97C46.45 17.97 46.63 18.14 46.63 18.35ZM116.95 20.07L118.51 20.07L118.51 20.48L116.95 20.48L116.95 25.84C116.95 26.72 117.58 27.19 118.28 27.19C118.39 27.19 118.61 27.18 118.73 27.18L118.73 27.6C118.63 27.62 118.51 27.62 118.27 27.62C117.34 27.62 116.52 26.98 116.52 25.88L116.52 20.48L115.42 20.48L115.42 20.07L116.52 20.07L116.52 18.29L116.95 18.29L116.95 20.07ZM40.77 27.66C39.52 27.66 38.46 26.87 38.46 25.47C38.46 24.35 39.14 23.42 41.09 23.26C41.63 23.21 42.87 23.12 43.25 23.09L43.25 22.2C43.25 21.1 42.46 20.37 41.22 20.37C40.16 20.37 39.3 20.86 39.11 21.73L38.65 21.73C38.82 20.62 39.9 19.96 41.22 19.96C42.62 19.96 43.69 20.8 43.69 22.23L43.69 27.5L43.25 27.5L43.25 26.06L43.21 26.06C42.79 26.99 41.91 27.66 40.77 27.66ZM75.98 23.8C75.98 26.02 74.64 27.65 72.85 27.65C71.06 27.65 69.73 26.02 69.73 23.8C69.73 21.59 71.06 19.96 72.85 19.96C74.64 19.96 75.98 21.6 75.98 23.8ZM101.18 30.28L100.72 30.28L100.72 20.07L101.16 20.07L101.16 21.85L101.22 21.85C101.6 20.75 102.45 19.96 103.68 19.96C105.45 19.96 106.59 21.59 106.59 23.8C106.59 26.02 105.44 27.65 103.68 27.65C102.46 27.65 101.59 26.87 101.22 25.75L101.18 25.75L101.18 30.28ZM114.23 23.8C114.23 26.02 112.89 27.65 111.1 27.65C109.31 27.65 107.98 26.02 107.98 23.8C107.98 21.59 109.31 19.96 111.1 19.96C112.89 19.96 114.23 21.6 114.23 23.8ZM49.19 27.5L48.74 27.5L48.74 20.07L49.17 20.07L49.17 21.18L49.23 21.18C49.5 20.45 50.24 19.98 51.22 19.98C52.32 19.98 52.97 20.55 53.25 21.47L53.29 21.47C53.55 20.55 54.33 19.98 55.45 19.98C56.91 19.98 57.65 20.99 57.65 22.5L57.65 27.5L57.2 27.5L57.2 22.52C57.2 21.23 56.62 20.4 55.38 20.4C54.11 20.4 53.41 21.29 53.41 22.53L53.41 27.5L52.97 27.5L52.97 22.49C52.97 21.25 52.4 20.4 51.16 20.4C49.91 20.4 49.19 21.3 49.19 22.56L49.19 27.5ZM85.71 27.5L85.26 27.5L85.26 20.07L85.7 20.07L85.7 21.25L85.75 21.25C86.08 20.47 86.93 19.98 87.93 19.98L88.15 19.98L88.15 20.41L87.91 20.41C86.63 20.41 85.71 21.3 85.71 22.56L85.71 27.5ZM46.45 27.5L46.02 27.5L46.02 20.07L46.45 20.07L46.45 27.5ZM80.37 27.15C81.6 27.15 82.57 26.28 82.57 24.97L82.57 20.07L83 20.07L83 27.5L82.57 27.5L82.57 26.31L82.53 26.31C82.17 27.07 81.34 27.59 80.3 27.59C78.82 27.59 77.78 26.57 77.78 25.02L77.78 20.07L78.23 20.07L78.23 25.01C78.23 26.28 79.11 27.15 80.37 27.15ZM70.17 23.8C70.17 25.73 71.29 27.22 72.85 27.22C74.42 27.22 75.53 25.73 75.53 23.8C75.53 21.88 74.41 20.39 72.85 20.39C71.29 20.39 70.17 21.88 70.17 23.8ZM103.65 20.39C102.1 20.39 101.18 21.85 101.18 23.8C101.18 25.76 102.12 27.22 103.65 27.22C105.19 27.22 106.14 25.75 106.14 23.8C106.14 21.86 105.21 20.39 103.65 20.39ZM108.42 23.8C108.42 25.73 109.54 27.22 111.1 27.22C112.67 27.22 113.78 25.73 113.78 23.8C113.78 21.88 112.66 20.39 111.1 20.39C109.54 20.39 108.42 21.88 108.42 23.8ZM41.22 23.65C39.44 23.79 38.91 24.56 38.91 25.47C38.91 26.55 39.73 27.24 40.79 27.24C42.19 27.24 43.25 26.06 43.25 24.41L43.25 23.49C42.88 23.52 41.64 23.63 41.22 23.65Z" fill="#FFFFFF" fill-opacity="1.000000" fill-rule="evenodd"/>
	<rect id="button" rx="23.000000" width="144.000000" height="46.000000" transform="translate(0.500000 0.000000)" stroke="#1D1E1C" stroke-opacity="1.000000" stroke-width="1.000000"/>
</svg>
