<svg width="145.000000" height="47.000000" viewBox="0 0 145 47" fill="none" xmlns="http://www.w3.org/2000/svg" xmlns:xlink="http://www.w3.org/1999/xlink">
	<desc>
			Created with Pixso.
	</desc>
	<defs/>
	<rect id="button" rx="23.000000" width="144.000000" height="46.000000" transform="translate(0.000000 0.500000)" fill="#1D1E1C" fill-opacity="1.000000"/>
	<path id="Claim Your Spot" d="M98.12 20.57L97.67 20.57C97.57 19.27 96.59 18.37 95.11 18.37C93.62 18.37 92.55 19.27 92.55 20.52C92.55 21.53 93.29 22.17 94.6 22.57L95.71 22.91C97.33 23.39 98.25 24.14 98.25 25.45C98.25 27.01 96.97 28.16 95.03 28.16C93.17 28.16 91.97 27.12 91.87 25.63L92.32 25.63C92.42 26.89 93.47 27.72 95.03 27.72C96.68 27.72 97.8 26.81 97.8 25.45C97.8 24.4 97.11 23.8 95.59 23.33L94.45 22.99C92.9 22.51 92.1 21.71 92.1 20.53C92.1 19.04 93.39 17.95 95.11 17.95C96.85 17.95 98.02 19.05 98.12 20.57ZM33.27 21.19L32.81 21.19C32.55 19.87 31.36 18.4 29.44 18.4C27.46 18.4 25.75 20.05 25.75 23.05C25.75 26.07 27.46 27.69 29.44 27.69C31.36 27.69 32.55 26.23 32.81 24.91L33.27 24.91C33.01 26.4 31.73 28.13 29.44 28.13C27 28.13 25.3 26.09 25.3 23.05C25.3 20 27 17.96 29.44 17.96C31.73 17.96 33.01 19.68 33.27 21.19ZM35.17 18.1L35.62 18.1L35.62 28L35.17 28L35.17 18.1ZM65.26 23.4L61.7 18.1L62.25 18.1L65.46 22.91L65.52 22.91L68.73 18.1L69.28 18.1L65.71 23.4L65.71 28L65.26 28L65.26 23.4ZM46.13 18.85C46.13 19.07 45.95 19.23 45.73 19.23C45.53 19.23 45.35 19.07 45.35 18.85C45.35 18.64 45.53 18.47 45.73 18.47C45.95 18.47 46.13 18.64 46.13 18.85ZM116.45 20.57L118.01 20.57L118.01 20.98L116.45 20.98L116.45 26.34C116.45 27.22 117.08 27.69 117.78 27.69C117.89 27.69 118.11 27.68 118.23 27.68L118.23 28.1C118.13 28.12 118.01 28.12 117.77 28.12C116.84 28.12 116.02 27.48 116.02 26.38L116.02 20.98L114.92 20.98L114.92 20.57L116.02 20.57L116.02 18.79L116.45 18.79L116.45 20.57ZM40.27 28.16C39.02 28.16 37.96 27.37 37.96 25.97C37.96 24.85 38.64 23.92 40.59 23.76C41.13 23.71 42.37 23.62 42.75 23.59L42.75 22.7C42.75 21.6 41.96 20.87 40.72 20.87C39.66 20.87 38.8 21.36 38.61 22.23L38.15 22.23C38.32 21.12 39.4 20.46 40.72 20.46C42.12 20.46 43.19 21.3 43.19 22.73L43.19 28L42.75 28L42.75 26.56L42.71 26.56C42.29 27.49 41.41 28.16 40.27 28.16ZM75.48 24.3C75.48 26.52 74.14 28.15 72.35 28.15C70.56 28.15 69.23 26.52 69.23 24.3C69.23 22.09 70.56 20.46 72.35 20.46C74.14 20.46 75.48 22.1 75.48 24.3ZM100.68 30.78L100.22 30.78L100.22 20.57L100.66 20.57L100.66 22.35L100.72 22.35C101.1 21.25 101.95 20.46 103.18 20.46C104.95 20.46 106.09 22.09 106.09 24.3C106.09 26.52 104.94 28.15 103.18 28.15C101.96 28.15 101.09 27.37 100.72 26.25L100.68 26.25L100.68 30.78ZM113.73 24.3C113.73 26.52 112.39 28.15 110.6 28.15C108.81 28.15 107.48 26.52 107.48 24.3C107.48 22.09 108.81 20.46 110.6 20.46C112.39 20.46 113.73 22.1 113.73 24.3ZM48.69 28L48.24 28L48.24 20.57L48.67 20.57L48.67 21.68L48.73 21.68C49 20.95 49.74 20.48 50.72 20.48C51.82 20.48 52.47 21.05 52.75 21.97L52.79 21.97C53.05 21.05 53.83 20.48 54.95 20.48C56.41 20.48 57.15 21.49 57.15 23L57.15 28L56.7 28L56.7 23.02C56.7 21.73 56.12 20.9 54.88 20.9C53.61 20.9 52.91 21.79 52.91 23.03L52.91 28L52.47 28L52.47 22.99C52.47 21.75 51.9 20.9 50.66 20.9C49.41 20.9 48.69 21.8 48.69 23.06L48.69 28ZM85.21 28L84.76 28L84.76 20.57L85.2 20.57L85.2 21.75L85.25 21.75C85.58 20.97 86.43 20.48 87.43 20.48L87.65 20.48L87.65 20.91L87.41 20.91C86.13 20.91 85.21 21.8 85.21 23.06L85.21 28ZM45.95 28L45.52 28L45.52 20.57L45.95 20.57L45.95 28ZM79.87 27.65C81.1 27.65 82.07 26.78 82.07 25.47L82.07 20.57L82.5 20.57L82.5 28L82.07 28L82.07 26.81L82.03 26.81C81.67 27.57 80.84 28.09 79.8 28.09C78.32 28.09 77.28 27.07 77.28 25.52L77.28 20.57L77.73 20.57L77.73 25.51C77.73 26.78 78.61 27.65 79.87 27.65ZM69.67 24.3C69.67 26.23 70.79 27.72 72.35 27.72C73.92 27.72 75.03 26.23 75.03 24.3C75.03 22.38 73.91 20.89 72.35 20.89C70.79 20.89 69.67 22.38 69.67 24.3ZM103.15 20.89C101.6 20.89 100.68 22.35 100.68 24.3C100.68 26.26 101.62 27.72 103.15 27.72C104.69 27.72 105.64 26.25 105.64 24.3C105.64 22.36 104.71 20.89 103.15 20.89ZM107.92 24.3C107.92 26.23 109.04 27.72 110.6 27.72C112.17 27.72 113.28 26.23 113.28 24.3C113.28 22.38 112.16 20.89 110.6 20.89C109.04 20.89 107.92 22.38 107.92 24.3ZM40.72 24.15C38.94 24.29 38.41 25.06 38.41 25.97C38.41 27.05 39.23 27.74 40.29 27.74C41.69 27.74 42.75 26.56 42.75 24.91L42.75 23.99C42.38 24.02 41.14 24.13 40.72 24.15Z" fill="#FFFFFF" fill-opacity="1.000000" fill-rule="evenodd"/>
	<rect id="button" rx="23.000000" width="144.000000" height="46.000000" transform="translate(0.000000 0.500000)" stroke="#1D1E1C" stroke-opacity="1.000000" stroke-width="1.000000"/>
</svg>
