<svg width="142.000000" height="47.000000" viewBox="0 0 142 47" fill="none" xmlns="http://www.w3.org/2000/svg" xmlns:xlink="http://www.w3.org/1999/xlink">
	<desc>
			Created with Pixso.
	</desc>
	<defs/>
	<rect id="button" rx="23.000000" width="141.000000" height="46.000000" transform="translate(0.500000 0.500000)" fill="#FFFFFF" fill-opacity="1.000000"/>
	<path id="Claim Your Spot" d="M79.11 20.57L78.66 20.57C78.56 19.27 77.58 18.37 76.1 18.37C74.61 18.37 73.54 19.27 73.54 20.52C73.54 21.53 74.28 22.17 75.59 22.57L76.7 22.91C78.32 23.39 79.25 24.14 79.25 25.45C79.25 27.01 77.96 28.16 76.02 28.16C74.16 28.16 72.96 27.12 72.86 25.63L73.31 25.63C73.41 26.89 74.46 27.72 76.02 27.72C77.67 27.72 78.79 26.81 78.79 25.45C78.79 24.4 78.1 23.8 76.58 23.33L75.44 22.99C73.89 22.51 73.09 21.71 73.09 20.53C73.09 19.04 74.38 17.95 76.1 17.95C77.84 17.95 79.01 19.05 79.11 20.57ZM31.86 28L26.33 28L26.33 18.1L31.74 18.1L31.74 18.52L26.79 18.52L26.79 22.83L31.43 22.83L31.43 23.26L26.79 23.26L26.79 27.56L31.86 27.56L31.86 28ZM48.09 18.1L48.54 18.1L48.54 28L48.09 28L48.09 18.1ZM115.42 22.23L114.97 22.23C114.79 21.39 114.1 20.89 113.08 20.87C111.95 20.87 111.16 21.51 111.16 22.43C111.16 23.16 111.65 23.67 112.63 23.92L113.78 24.21C114.92 24.48 115.49 25.16 115.49 26.09C115.49 27.3 114.49 28.15 112.95 28.15C111.54 28.15 110.62 27.45 110.43 26.22L110.9 26.22C111.07 27.2 111.8 27.74 112.95 27.74C114.2 27.74 115.04 27.09 115.04 26.11C115.04 25.38 114.59 24.85 113.64 24.63L112.5 24.34C111.32 24.06 110.72 23.39 110.72 22.44C110.72 21.27 111.69 20.45 113.08 20.46C114.38 20.46 115.23 21.19 115.42 22.23ZM40.85 30.78L40.4 30.78L40.4 20.57L40.84 20.57L40.84 22.35L40.9 22.35C41.28 21.25 42.13 20.46 43.36 20.46C45.13 20.46 46.27 22.09 46.27 24.3C46.27 26.52 45.12 28.15 43.36 28.15C42.14 28.15 41.26 27.37 40.9 26.25L40.85 26.25L40.85 30.78ZM56.6 24.3C56.6 26.52 55.26 28.15 53.47 28.15C51.68 28.15 50.36 26.52 50.36 24.3C50.36 22.09 51.68 20.46 53.47 20.46C55.26 20.46 56.6 22.1 56.6 24.3ZM67.97 26.44C67.66 27.24 66.72 28.15 65.26 28.15C63.28 28.15 61.99 26.5 61.99 24.3C61.99 22.1 63.32 20.46 65.11 20.46C66.8 20.46 68.17 21.95 68.17 24L68.17 24.34L62.43 24.34C62.44 26.22 63.48 27.72 65.26 27.72C66.54 27.72 67.24 26.91 67.49 26.44L67.97 26.44ZM81.66 30.78L81.21 30.78L81.21 20.57L81.65 20.57L81.65 22.35L81.71 22.35C82.09 21.25 82.94 20.46 84.17 20.46C85.94 20.46 87.08 22.09 87.08 24.3C87.08 26.52 85.93 28.15 84.17 28.15C82.95 28.15 82.08 27.37 81.71 26.25L81.66 26.25L81.66 30.78ZM90.81 28.16C89.57 28.16 88.5 27.37 88.5 25.97C88.5 24.85 89.18 23.92 91.14 23.76C91.68 23.71 92.92 23.62 93.3 23.59L93.3 22.7C93.3 21.6 92.51 20.87 91.26 20.87C90.21 20.87 89.35 21.36 89.16 22.23L88.69 22.23C88.87 21.12 89.95 20.46 91.26 20.46C92.67 20.46 93.74 21.3 93.74 22.73L93.74 28L93.3 28L93.3 26.56L93.26 26.56C92.83 27.49 91.96 28.16 90.81 28.16ZM101.46 25.82C101.24 27.22 100.15 28.15 98.75 28.15C96.9 28.15 95.6 26.5 95.6 24.3C95.6 22.12 96.91 20.46 98.74 20.46C100.11 20.46 101.23 21.39 101.45 22.75L100.98 22.75C100.79 21.65 99.89 20.89 98.75 20.89C97.2 20.89 96.03 22.32 96.03 24.3C96.03 26.23 97.14 27.72 98.75 27.72C99.89 27.72 100.82 26.98 101 25.82L101.46 25.82ZM108.82 26.44C108.52 27.24 107.57 28.15 106.11 28.15C104.13 28.15 102.84 26.5 102.84 24.3C102.84 22.1 104.17 20.46 105.96 20.46C107.66 20.46 109.02 21.95 109.02 24L109.02 24.34L103.28 24.34C103.29 26.22 104.33 27.72 106.11 27.72C107.4 27.72 108.09 26.91 108.34 26.44L108.82 26.44ZM58.86 28L58.41 28L58.41 20.57L58.85 20.57L58.85 21.75L58.9 21.75C59.23 20.97 60.08 20.48 61.08 20.48L61.29 20.48L61.29 20.91L61.06 20.91C59.78 20.91 58.86 21.8 58.86 23.06L58.86 28ZM33.33 20.57L33.85 20.57L35.97 23.93L38.09 20.57L38.61 20.57L36.25 24.28L38.61 28L38.11 28L35.97 24.65L33.85 28L33.33 28L35.7 24.28L33.33 20.57ZM43.33 20.89C41.78 20.89 40.85 22.35 40.85 24.3C40.85 26.26 41.8 27.72 43.33 27.72C44.87 27.72 45.82 26.25 45.82 24.3C45.82 22.36 44.89 20.89 43.33 20.89ZM50.79 24.3C50.79 26.23 51.91 27.72 53.47 27.72C55.05 27.72 56.15 26.23 56.15 24.3C56.15 22.38 55.03 20.89 53.47 20.89C51.91 20.89 50.79 22.38 50.79 24.3ZM65.11 20.89C63.67 20.89 62.53 22.18 62.44 23.92L67.72 23.92C67.72 22.23 66.57 20.89 65.11 20.89ZM84.14 20.89C82.59 20.89 81.66 22.35 81.66 24.3C81.66 26.26 82.61 27.72 84.14 27.72C85.68 27.72 86.63 26.25 86.63 24.3C86.63 22.36 85.7 20.89 84.14 20.89ZM105.96 20.89C104.52 20.89 103.38 22.18 103.29 23.92L108.57 23.92C108.57 22.23 107.42 20.89 105.96 20.89ZM91.26 24.15C89.49 24.29 88.95 25.06 88.95 25.97C88.95 27.05 89.77 27.74 90.84 27.74C92.23 27.74 93.3 26.56 93.3 24.91L93.3 23.99C92.92 24.02 91.69 24.13 91.26 24.15Z" fill="#1D1E1C" fill-opacity="1.000000" fill-rule="evenodd"/>
	<rect id="button" rx="23.000000" width="141.000000" height="46.000000" transform="translate(0.500000 0.500000)" stroke="#1D1E1C" stroke-opacity="1.000000" stroke-width="1.000000"/>
</svg>
