<svg width="45.000000" height="37.000000" viewBox="0 0 45 37" fill="none" xmlns="http://www.w3.org/2000/svg" xmlns:xlink="http://www.w3.org/1999/xlink">
	<desc>
			Created with Pixso.
	</desc>
	<defs/>
	<path id="Vector" d="M39.52 15.7C39.61 16.46 39.66 17.23 39.66 18C39.66 21.36 38.72 24.65 36.95 27.51C35.17 30.37 32.63 32.67 29.61 34.15C26.59 35.64 23.22 36.24 19.87 35.91C16.53 35.57 13.34 34.3 10.68 32.25C15.4 31.09 20.96 28.7 26.14 25.72C31.66 22.55 36.32 19.02 39.52 15.7ZM43.62 5.37C42.19 2.9 38.4 2.34 32.65 3.75C29.99 1.69 26.8 0.42 23.46 0.08C20.11 -0.26 16.73 0.35 13.72 1.84C10.7 3.32 8.15 5.62 6.38 8.48C4.6 11.33 3.66 14.63 3.66 18C3.66 18.77 3.71 19.54 3.81 20.3C-1.38 25.68 -1.31 28.87 -0.29 30.62C0.66 32.28 2.66 33 5.28 33C7.1 32.96 8.92 32.71 10.68 32.25C9.71 31.5 8.82 30.65 8.02 29.73C4.78 30.27 2.77 29.92 2.3 29.11C2.03 28.64 2.18 27.75 2.72 26.67C3.25 25.66 3.9 24.72 4.64 23.85C4.65 23.85 4.65 23.84 4.64 23.84L4.64 23.85C5.39 26 6.53 28 8.02 29.72C11.95 29.07 17.67 27.11 24.64 23.11C29.91 20.09 35.54 15.87 38.68 12.15C37.94 9.99 36.8 8 35.31 6.27L35.29 6.24C35.29 6.25 35.3 6.26 35.31 6.27C37.97 5.83 40.44 5.86 41.03 6.88C41.2 7.17 41.22 7.61 41.06 8.19C40.74 9.37 39.9 10.73 38.69 12.15C39.09 13.3 39.36 14.49 39.52 15.7C41.86 13.26 43.42 10.95 43.95 8.97C44.32 7.59 44.21 6.38 43.62 5.37Z" fill="#1D1E1C" fill-opacity="1.000000" fill-rule="nonzero"/>
</svg>
