<svg width="151.000000" height="29.000000" viewBox="0 0 151 29" fill="none" xmlns="http://www.w3.org/2000/svg" xmlns:xlink="http://www.w3.org/1999/xlink">
	<desc>
			Created with Pixso.
	</desc>
	<defs/>
	<rect id="Frame 61" rx="8.000000" width="69.000000" height="29.000000" fill="#A6E8F6" fill-opacity="1.000000"/>
	<path id="Text" d="M11.84 9.52L8.65 9.52L8.65 9.1L15.46 9.1L15.46 9.52L12.29 9.52L12.29 19L11.84 19L11.84 9.52ZM40.46 17.25C40.08 18.35 39.23 19.15 38.01 19.15C36.23 19.15 35.1 17.52 35.1 15.3C35.1 13.09 36.25 11.46 38.01 11.46C39.23 11.46 40.1 12.24 40.46 13.35L40.51 13.35L40.51 9.1L40.95 9.1L40.95 19L40.51 19L40.51 17.25L40.46 17.25ZM44.08 9.85C44.08 10.07 43.9 10.23 43.69 10.23C43.48 10.23 43.3 10.07 43.3 9.85C43.3 9.64 43.48 9.47 43.69 9.47C43.9 9.47 44.08 9.64 44.08 9.85ZM26.02 17.44C25.72 18.24 24.78 19.15 23.31 19.15C21.33 19.15 20.05 17.5 20.05 15.3C20.05 13.1 21.37 11.46 23.16 11.46C24.86 11.46 26.23 12.95 26.23 15L26.23 15.34L20.48 15.34C20.5 17.22 21.54 18.72 23.31 18.72C24.6 18.72 25.3 17.91 25.54 17.44L26.02 17.44ZM59.09 19.16C59.09 21 57.99 21.93 56.26 21.93C54.92 21.93 53.78 21.4 53.52 20.24L53.99 20.24C54.21 21.1 55.16 21.51 56.26 21.51C57.77 21.51 58.66 20.75 58.66 19.15L58.66 17.22L58.6 17.22C58.25 18.33 57.3 18.98 56.15 18.98C54.4 18.98 53.24 17.49 53.24 15.29C53.24 13.06 54.38 11.46 56.15 11.46C57.38 11.46 58.23 12.24 58.62 13.35L58.66 13.35L58.66 11.57L59.09 11.57L59.09 19.16ZM16.92 19L16.46 19L16.46 11.57L16.9 11.57L16.9 12.75L16.96 12.75C17.29 11.97 18.13 11.48 19.13 11.48L19.35 11.48L19.35 11.91L19.12 11.91C17.83 11.91 16.92 12.8 16.92 14.06L16.92 19ZM30.7 11.9C29.41 11.9 28.5 12.79 28.5 14.09L28.5 19L28.04 19L28.04 11.57L28.48 11.57L28.48 12.75L28.54 12.75C28.88 11.98 29.71 11.48 30.75 11.48C32.24 11.48 33.28 12.5 33.28 14.05L33.28 19L32.83 19L32.83 14.06C32.83 12.77 31.97 11.9 30.7 11.9ZM48.84 11.9C47.55 11.9 46.64 12.79 46.64 14.09L46.64 19L46.19 19L46.19 11.57L46.62 11.57L46.62 12.75L46.68 12.75C47.02 11.98 47.86 11.48 48.89 11.48C50.38 11.48 51.42 12.5 51.42 14.05L51.42 19L50.97 19L50.97 14.06C50.97 12.77 50.11 11.9 48.84 11.9ZM43.9 19L43.47 19L43.47 11.57L43.9 11.57L43.9 19ZM23.16 11.89C21.73 11.89 20.59 13.18 20.5 14.92L25.78 14.92C25.78 13.23 24.63 11.89 23.16 11.89ZM35.55 15.3C35.55 17.25 36.48 18.72 38.03 18.72C39.57 18.72 40.51 17.26 40.51 15.3C40.51 13.35 39.57 11.89 38.03 11.89C36.48 11.89 35.55 13.36 35.55 15.3ZM53.69 15.29C53.69 17.23 54.64 18.56 56.17 18.56C57.69 18.56 58.66 17.3 58.66 15.29C58.66 13.35 57.71 11.89 56.17 11.89C54.62 11.89 53.69 13.36 53.69 15.29Z" fill="#1D1E1C" fill-opacity="1.000000" fill-rule="evenodd"/>
	<path id="Text" d="M110.27 10.06C110.27 10.5 109.89 10.84 109.44 10.84C108.99 10.84 108.62 10.5 108.62 10.06C108.62 9.62 108.99 9.28 109.44 9.28C109.89 9.28 110.27 9.62 110.27 10.06ZM87.52 19.5L86.24 19.5L90.78 10.76L90.78 10.69L85.54 10.69L85.54 9.6L92.05 9.6L92.05 10.75L87.52 19.5ZM148.06 18.36C147.8 18.77 147.32 19.65 145.9 19.65C144.05 19.65 142.74 18.16 142.74 15.8C142.74 13.45 144.05 11.98 145.91 11.98C147.35 11.98 147.81 12.85 148.06 13.25L148.14 13.25L148.14 9.6L149.33 9.6L149.33 19.5L148.18 19.5L148.18 18.36L148.06 18.36ZM124.38 19.5L123.21 19.5L123.21 12.07L124.34 12.07L124.34 13.21L124.43 13.21C124.7 12.45 125.46 11.95 126.34 11.95C126.52 11.95 126.82 11.96 126.95 11.98L126.95 13.16C126.87 13.14 126.54 13.08 126.24 13.08C125.18 13.08 124.38 13.82 124.38 14.82L124.38 19.5ZM98.35 19.5L97.18 19.5L97.18 12.07L98.31 12.07L98.31 13.23L98.41 13.23C98.72 12.44 99.43 11.98 100.4 11.98C101.37 11.98 102.03 12.44 102.39 13.23L102.47 13.23C102.85 12.47 103.63 11.98 104.7 11.98C106.02 11.98 106.97 12.78 106.97 14.53L106.97 19.5L105.79 19.5L105.79 14.55C105.79 13.45 105.09 13.03 104.29 13.03C103.25 13.03 102.66 13.73 102.66 14.67L102.66 19.5L101.47 19.5L101.47 14.42C101.47 13.59 100.87 13.03 100.02 13.03C99.13 13.03 98.35 13.78 98.35 14.86L98.35 19.5ZM114.95 13.03C113.87 13.03 113.08 13.75 113.08 15.04L113.08 19.5L111.9 19.5L111.9 12.07L113.04 12.07L113.04 13.23L113.13 13.23C113.49 12.48 114.17 11.98 115.31 11.98C116.81 11.98 117.81 12.89 117.81 14.78L117.81 19.5L116.63 19.5L116.63 14.86C116.63 13.71 116 13.03 114.95 13.03ZM133.96 17.76C133.61 18.88 132.51 19.65 130.98 19.65C128.83 19.65 127.51 18.13 127.51 15.84C127.51 13.56 128.85 11.98 130.87 11.98C132.43 11.98 134.07 12.93 134.07 15.68L134.07 16.17L128.68 16.17C128.74 17.75 129.65 18.61 130.98 18.61C131.87 18.61 132.43 18.22 132.7 17.76L133.96 17.76ZM137.78 19.67C136.37 19.67 135.25 18.84 135.25 17.39C135.25 15.68 136.75 15.3 138.03 15.2C138.51 15.17 139.71 15.11 140.05 15.09L140.05 14.49C140.05 13.55 139.48 13 138.36 13C137.42 13 136.86 13.44 136.7 14L135.47 14C135.62 12.81 136.78 11.98 138.42 11.98C139.39 11.98 141.21 12.26 141.21 14.6L141.21 19.5L140.05 19.5L140.05 18.48L139.99 18.48C139.74 18.99 139.06 19.67 137.78 19.67ZM110.03 19.5L108.85 19.5L108.85 12.07L110.03 12.07L110.03 19.5ZM130.87 13.01C129.59 13.01 128.77 14.03 128.7 15.17L132.88 15.17C132.88 13.93 132.09 13.01 130.87 13.01ZM143.93 15.78C143.93 17.36 144.65 18.59 146.06 18.59C147.41 18.59 148.18 17.44 148.18 15.78C148.18 14.14 147.44 13.03 146.06 13.03C144.64 13.03 143.93 14.23 143.93 15.78ZM138.17 16.19C137.11 16.25 136.42 16.64 136.42 17.44C136.42 18.22 137.08 18.62 137.98 18.62C139.31 18.62 140.05 17.73 140.05 16.8L140.05 16.05C139.7 16.08 138.53 16.17 138.17 16.19Z" fill="#1D1E1C" fill-opacity="1.000000" fill-rule="evenodd"/>
</svg>
