<svg width="129.000000" height="29.000000" viewBox="0 0 129 29" fill="none" xmlns="http://www.w3.org/2000/svg" xmlns:xlink="http://www.w3.org/1999/xlink">
	<desc>
			Created with Pixso.
	</desc>
	<defs/>
	<rect id="Frame 61" rx="8.000000" width="40.000000" height="29.000000" fill="#D3F985" fill-opacity="1.000000"/>
	<path id="Text" d="M11.84 9.52L8.65 9.52L8.65 9.1L15.46 9.1L15.46 9.52L12.29 9.52L12.29 19L11.84 19L11.84 9.52ZM23.36 9.1L23.81 9.1L23.81 19L23.36 19L23.36 9.1ZM26.5 19L26.05 19L26.05 9.1L26.5 9.1L26.5 15.34L26.55 15.34L30.38 11.57L30.98 11.57L27.76 14.77L31.12 19L30.55 19L27.43 15.06L26.5 15.96L26.5 19ZM18.15 19.16C16.9 19.16 15.84 18.37 15.84 16.97C15.84 15.85 16.52 14.92 18.47 14.76C19.01 14.71 20.25 14.62 20.63 14.59L20.63 13.7C20.63 12.6 19.84 11.87 18.6 11.87C17.54 11.87 16.68 12.36 16.49 13.23L16.03 13.23C16.2 12.12 17.29 11.46 18.6 11.46C20.01 11.46 21.07 12.3 21.07 13.73L21.07 19L20.63 19L20.63 17.56L20.59 17.56C20.17 18.49 19.29 19.16 18.15 19.16ZM18.6 15.15C16.82 15.29 16.29 16.06 16.29 16.97C16.29 18.05 17.11 18.74 18.17 18.74C19.57 18.74 20.63 17.56 20.63 15.91L20.63 14.99C20.26 15.02 19.02 15.13 18.6 15.15Z" fill="#1D1E1C" fill-opacity="1.000000" fill-rule="evenodd"/>
	<path id="Text" d="M88.03 10.06C88.03 10.5 87.65 10.84 87.19 10.84C86.74 10.84 86.37 10.5 86.37 10.06C86.37 9.62 86.74 9.28 87.19 9.28C87.65 9.28 88.03 9.62 88.03 10.06ZM69.76 14.55C69.76 17.79 68.49 19.63 66.3 19.63C64.1 19.63 62.84 17.79 62.84 14.55C62.84 11.33 64.13 9.46 66.3 9.46C68.48 9.46 69.76 11.33 69.76 14.55ZM59.18 9.6L60.42 9.6L60.42 19.5L59.18 19.5L59.18 10.88L59.13 10.88L56.72 12.48L56.72 11.24L59.18 9.6ZM125.81 18.36C125.55 18.77 125.07 19.65 123.65 19.65C121.81 19.65 120.49 18.16 120.49 15.8C120.49 13.45 121.81 11.98 123.66 11.98C125.1 11.98 125.56 12.85 125.81 13.25L125.89 13.25L125.89 9.6L127.08 9.6L127.08 19.5L125.93 19.5L125.93 18.36L125.81 18.36ZM64.03 14.55C64.03 17.1 64.87 18.54 66.3 18.54C67.73 18.54 68.56 17.1 68.56 14.55C68.56 11.99 67.73 10.53 66.3 10.53C64.88 10.53 64.03 11.99 64.03 14.55ZM102.14 19.5L100.96 19.5L100.96 12.07L102.1 12.07L102.1 13.21L102.18 13.21C102.45 12.45 103.22 11.95 104.09 11.95C104.27 11.95 104.57 11.96 104.71 11.98L104.71 13.16C104.63 13.14 104.3 13.08 104 13.08C102.93 13.08 102.14 13.82 102.14 14.82L102.14 19.5ZM76.11 19.5L74.93 19.5L74.93 12.07L76.07 12.07L76.07 13.23L76.16 13.23C76.48 12.44 77.19 11.98 78.16 11.98C79.13 11.98 79.78 12.44 80.14 13.23L80.22 13.23C80.6 12.47 81.38 11.98 82.45 11.98C83.78 11.98 84.72 12.78 84.72 14.53L84.72 19.5L83.54 19.5L83.54 14.55C83.54 13.45 82.85 13.03 82.04 13.03C81 13.03 80.41 13.73 80.41 14.67L80.41 19.5L79.22 19.5L79.22 14.42C79.22 13.59 78.62 13.03 77.77 13.03C76.89 13.03 76.11 13.78 76.11 14.86L76.11 19.5ZM92.7 13.03C91.62 13.03 90.83 13.75 90.83 15.04L90.83 19.5L89.66 19.5L89.66 12.07L90.79 12.07L90.79 13.23L90.89 13.23C91.24 12.48 91.92 11.98 93.06 11.98C94.56 11.98 95.56 12.89 95.56 14.78L95.56 19.5L94.39 19.5L94.39 14.86C94.39 13.71 93.76 13.03 92.7 13.03ZM111.72 17.76C111.36 18.88 110.27 19.65 108.73 19.65C106.59 19.65 105.26 18.13 105.26 15.84C105.26 13.56 106.6 11.98 108.63 11.98C110.18 11.98 111.82 12.93 111.82 15.68L111.82 16.17L106.44 16.17C106.49 17.75 107.41 18.61 108.73 18.61C109.62 18.61 110.18 18.22 110.46 17.76L111.72 17.76ZM115.53 19.67C114.12 19.67 113 18.84 113 17.39C113 15.68 114.5 15.3 115.79 15.2C116.26 15.17 117.46 15.11 117.8 15.09L117.8 14.49C117.8 13.55 117.24 13 116.12 13C115.17 13 114.61 13.44 114.45 14L113.22 14C113.37 12.81 114.53 11.98 116.17 11.98C117.14 11.98 118.96 12.26 118.96 14.6L118.96 19.5L117.8 19.5L117.8 18.48L117.74 18.48C117.5 18.99 116.81 19.67 115.53 19.67ZM87.78 19.5L86.61 19.5L86.61 12.07L87.78 12.07L87.78 19.5ZM108.63 13.01C107.34 13.01 106.52 14.03 106.45 15.17L110.64 15.17C110.64 13.93 109.84 13.01 108.63 13.01ZM121.68 15.78C121.68 17.36 122.41 18.59 123.81 18.59C125.17 18.59 125.93 17.44 125.93 15.78C125.93 14.14 125.2 13.03 123.81 13.03C122.39 13.03 121.68 14.23 121.68 15.78ZM115.93 16.19C114.86 16.25 114.18 16.64 114.18 17.44C114.18 18.22 114.83 18.62 115.73 18.62C117.06 18.62 117.8 17.73 117.8 16.8L117.8 16.05C117.45 16.08 116.28 16.17 115.93 16.19Z" fill="#1D1E1C" fill-opacity="1.000000" fill-rule="evenodd"/>
</svg>
