<svg width="170.000000" height="29.000000" viewBox="0 0 170 29" fill="none" xmlns="http://www.w3.org/2000/svg" xmlns:xlink="http://www.w3.org/1999/xlink">
	<desc>
			Created with Pixso.
	</desc>
	<defs/>
	<rect id="Frame 61" rx="8.000000" width="87.000000" height="29.000000" fill="#FCBEDC" fill-opacity="1.000000"/>
	<path id="Text" d="M9.79 19L9.33 19L9.33 9.1L12.32 9.1C14.08 9.1 15.24 10.33 15.24 12.04C15.24 13.73 14.08 14.96 12.32 14.96L9.79 14.96L9.79 19ZM33.71 17.25C33.33 18.35 32.48 19.15 31.26 19.15C29.49 19.15 28.35 17.52 28.35 15.3C28.35 13.09 29.5 11.46 31.26 11.46C32.48 11.46 33.36 12.24 33.71 13.35L33.77 13.35L33.77 9.1L34.2 9.1L34.2 19L33.77 19L33.77 17.25L33.71 17.25ZM56.54 9.85C56.54 10.07 56.37 10.23 56.15 10.23C55.94 10.23 55.76 10.07 55.76 9.85C55.76 9.64 55.94 9.47 56.15 9.47C56.37 9.47 56.54 9.64 56.54 9.85ZM66.21 9.85C66.21 10.07 66.03 10.23 65.81 10.23C65.61 10.23 65.43 10.07 65.43 9.85C65.43 9.64 65.61 9.47 65.81 9.47C66.03 9.47 66.21 9.64 66.21 9.85ZM9.79 9.52L9.79 14.52L12.3 14.52C13.81 14.52 14.79 13.49 14.79 12.04C14.79 10.57 13.81 9.52 12.3 9.52L9.79 9.52ZM52.32 11.57L53.88 11.57L53.88 11.98L52.32 11.98L52.32 17.34C52.32 18.22 52.95 18.69 53.65 18.69C53.75 18.69 53.97 18.68 54.1 18.68L54.1 19.1C54 19.12 53.88 19.12 53.63 19.12C52.7 19.12 51.88 18.48 51.88 17.38L51.88 11.98L50.79 11.98L50.79 11.57L51.88 11.57L51.88 9.79L52.32 9.79L52.32 11.57ZM69.23 11.57L70.79 11.57L70.79 11.98L69.23 11.98L69.23 17.34C69.23 18.22 69.86 18.69 70.56 18.69C70.67 18.69 70.89 18.68 71.01 18.68L71.01 19.1C70.91 19.12 70.79 19.12 70.54 19.12C69.61 19.12 68.79 18.48 68.79 17.38L68.79 11.98L67.7 11.98L67.7 11.57L68.79 11.57L68.79 9.79L69.23 9.79L69.23 11.57ZM26.97 15.3C26.97 17.52 25.63 19.15 23.84 19.15C22.05 19.15 20.72 17.52 20.72 15.3C20.72 13.09 22.05 11.46 23.84 11.46C25.63 11.46 26.97 13.1 26.97 15.3ZM49.6 16.82C49.38 18.22 48.29 19.15 46.89 19.15C45.03 19.15 43.73 17.5 43.73 15.3C43.73 13.12 45.05 11.46 46.88 11.46C48.25 11.46 49.37 12.39 49.58 13.75L49.12 13.75C48.93 12.65 48.03 11.89 46.89 11.89C45.33 11.89 44.17 13.32 44.17 15.3C44.17 17.23 45.28 18.72 46.89 18.72C48.03 18.72 48.96 17.98 49.13 16.82L49.6 16.82ZM17.59 19L17.14 19L17.14 11.57L17.58 11.57L17.58 12.75L17.63 12.75C17.96 11.97 18.81 11.48 19.81 11.48L20.03 11.48L20.03 11.91L19.79 11.91C18.51 11.91 17.59 12.8 17.59 14.06L17.59 19ZM39.26 18.65C40.49 18.65 41.46 17.78 41.46 16.47L41.46 11.57L41.9 11.57L41.9 19L41.46 19L41.46 17.81L41.42 17.81C41.07 18.57 40.23 19.09 39.19 19.09C37.72 19.09 36.68 18.07 36.68 16.52L36.68 11.57L37.13 11.57L37.13 16.51C37.13 17.78 38 18.65 39.26 18.65ZM56.37 19L55.93 19L55.93 11.57L56.37 11.57L56.37 19ZM63.43 11.57L63.91 11.57L61.25 19L60.7 19L58.05 11.57L58.51 11.57L60.96 18.43L61 18.43L63.43 11.57ZM66.03 19L65.59 19L65.59 11.57L66.03 11.57L66.03 19ZM74.93 20.31C74.59 21.28 73.99 21.78 73.05 21.78C72.96 21.78 72.88 21.78 72.83 21.77L72.83 21.35C72.87 21.35 72.95 21.36 73.03 21.36C73.52 21.36 74.14 21.22 74.54 20.14L74.91 19.12L72.2 11.57L72.66 11.57L75.11 18.43L75.15 18.43L77.58 11.57L78.06 11.57L74.93 20.31ZM21.16 15.3C21.16 17.23 22.28 18.72 23.84 18.72C25.41 18.72 26.52 17.23 26.52 15.3C26.52 13.38 25.4 11.89 23.84 11.89C22.28 11.89 21.16 13.38 21.16 15.3ZM28.8 15.3C28.8 17.25 29.73 18.72 31.28 18.72C32.82 18.72 33.77 17.26 33.77 15.3C33.77 13.35 32.82 11.89 31.28 11.89C29.73 11.89 28.8 13.36 28.8 15.3Z" fill="#1D1E1C" fill-opacity="1.000000" fill-rule="evenodd"/>
	<path id="Text" d="M128.9 10.06C128.9 10.5 128.52 10.84 128.07 10.84C127.62 10.84 127.25 10.5 127.25 10.06C127.25 9.62 127.62 9.28 128.07 9.28C128.52 9.28 128.9 9.62 128.9 10.06ZM110.57 16.34C110.57 18.25 109.12 19.63 107.15 19.63C105.36 19.63 104.01 18.52 103.94 17.01L105.13 17.01C105.22 17.9 106.09 18.55 107.15 18.55C108.44 18.55 109.37 17.61 109.37 16.36C109.37 15.08 108.4 14.14 107.07 14.12C106.24 14.11 105.59 14.37 105.22 15.01L104.03 15.01L104.73 9.6L110.09 9.6L110.09 10.69L105.76 10.69L105.39 13.59L105.48 13.59C105.92 13.25 106.59 13.01 107.29 13.01C109.18 13.01 110.57 14.41 110.57 16.34ZM166.69 18.36C166.43 18.77 165.95 19.65 164.53 19.65C162.68 19.65 161.37 18.16 161.37 15.8C161.37 13.45 162.68 11.98 164.54 11.98C165.97 11.98 166.44 12.85 166.69 13.25L166.77 13.25L166.77 9.6L167.96 9.6L167.96 19.5L166.81 19.5L166.81 18.36L166.69 18.36ZM143.01 19.5L141.84 19.5L141.84 12.07L142.97 12.07L142.97 13.21L143.05 13.21C143.33 12.45 144.09 11.95 144.97 11.95C145.14 11.95 145.45 11.96 145.58 11.98L145.58 13.16C145.5 13.14 145.17 13.08 144.87 13.08C143.81 13.08 143.01 13.82 143.01 14.82L143.01 19.5ZM116.98 19.5L115.81 19.5L115.81 12.07L116.94 12.07L116.94 13.23L117.04 13.23C117.35 12.44 118.06 11.98 119.03 11.98C120 11.98 120.66 12.44 121.02 13.23L121.1 13.23C121.48 12.47 122.26 11.98 123.33 11.98C124.65 11.98 125.6 12.78 125.6 14.53L125.6 19.5L124.42 19.5L124.42 14.55C124.42 13.45 123.72 13.03 122.92 13.03C121.88 13.03 121.29 13.73 121.29 14.67L121.29 19.5L120.1 19.5L120.1 14.42C120.1 13.59 119.5 13.03 118.65 13.03C117.76 13.03 116.98 13.78 116.98 14.86L116.98 19.5ZM133.58 13.03C132.5 13.03 131.71 13.75 131.71 15.04L131.71 19.5L130.53 19.5L130.53 12.07L131.67 12.07L131.67 13.23L131.76 13.23C132.12 12.48 132.8 11.98 133.93 11.98C135.44 11.98 136.44 12.89 136.44 14.78L136.44 19.5L135.26 19.5L135.26 14.86C135.26 13.71 134.63 13.03 133.58 13.03ZM152.59 17.76C152.23 18.88 151.14 19.65 149.61 19.65C147.46 19.65 146.14 18.13 146.14 15.84C146.14 13.56 147.48 11.98 149.5 11.98C151.06 11.98 152.7 12.93 152.7 15.68L152.7 16.17L147.31 16.17C147.37 17.75 148.28 18.61 149.61 18.61C150.5 18.61 151.06 18.22 151.33 17.76L152.59 17.76ZM156.4 19.67C155 19.67 153.88 18.84 153.88 17.39C153.88 15.68 155.38 15.3 156.66 15.2C157.14 15.17 158.34 15.11 158.67 15.09L158.67 14.49C158.67 13.55 158.11 13 156.99 13C156.05 13 155.49 13.44 155.32 14L154.09 14C154.24 12.81 155.41 11.98 157.05 11.98C158.02 11.98 159.84 12.26 159.84 14.6L159.84 19.5L158.67 19.5L158.67 18.48L158.62 18.48C158.37 18.99 157.69 19.67 156.4 19.67ZM128.66 19.5L127.48 19.5L127.48 12.07L128.66 12.07L128.66 19.5ZM149.5 13.01C148.22 13.01 147.39 14.03 147.33 15.17L151.51 15.17C151.51 13.93 150.72 13.01 149.5 13.01ZM162.56 15.78C162.56 17.36 163.28 18.59 164.69 18.59C166.04 18.59 166.81 17.44 166.81 15.78C166.81 14.14 166.07 13.03 164.69 13.03C163.27 13.03 162.56 14.23 162.56 15.78ZM156.8 16.19C155.73 16.25 155.05 16.64 155.05 17.44C155.05 18.22 155.71 18.62 156.61 18.62C157.94 18.62 158.67 17.73 158.67 16.8L158.67 16.05C158.33 16.08 157.16 16.17 156.8 16.19Z" fill="#1D1E1C" fill-opacity="1.000000" fill-rule="evenodd"/>
</svg>
