<svg width="87.000000" height="47.000000" viewBox="0 0 87 47" fill="none" xmlns="http://www.w3.org/2000/svg" xmlns:xlink="http://www.w3.org/1999/xlink">
	<desc>
			Created with Pixso.
	</desc>
	<defs/>
	<rect id="button" rx="23.000000" width="86.000000" height="46.000000" transform="translate(0.500000 0.000000)" fill="#FFFFFF" fill-opacity="1.000000"/>
	<path id="Claim Your Spot" d="M31.68 27.5L26.33 27.5L26.33 17.6L26.79 17.6L26.79 27.06L31.68 27.06L31.68 27.5ZM52.17 17.6L52.63 17.6L52.63 27.5L52.17 27.5L52.17 17.6ZM39.31 23.8C39.31 26.02 37.97 27.65 36.18 27.65C34.39 27.65 33.06 26.02 33.06 23.8C33.06 21.59 34.39 19.96 36.18 19.96C37.97 19.96 39.31 21.6 39.31 23.8ZM46.54 27.66C46.54 29.5 45.43 30.43 43.71 30.43C42.37 30.43 41.22 29.9 40.96 28.74L41.44 28.74C41.66 29.6 42.6 30.01 43.71 30.01C45.22 30.01 46.1 29.25 46.1 27.65L46.1 25.72L46.05 25.72C45.69 26.83 44.75 27.48 43.6 27.48C41.85 27.48 40.69 25.99 40.69 23.79C40.69 21.56 41.83 19.96 43.6 19.96C44.83 19.96 45.68 20.74 46.06 21.85L46.1 21.85L46.1 20.07L46.54 20.07L46.54 27.66ZM57.75 20.4C56.47 20.4 55.55 21.29 55.55 22.59L55.55 27.5L55.1 27.5L55.1 20.07L55.54 20.07L55.54 21.25L55.59 21.25C55.93 20.48 56.77 19.98 57.81 19.98C59.3 19.98 60.34 21 60.34 22.55L60.34 27.5L59.89 27.5L59.89 22.56C59.89 21.27 59.02 20.4 57.75 20.4ZM33.5 23.8C33.5 25.73 34.62 27.22 36.18 27.22C37.75 27.22 38.86 25.73 38.86 23.8C38.86 21.88 37.74 20.39 36.18 20.39C34.62 20.39 33.5 21.88 33.5 23.8ZM41.14 23.79C41.14 25.73 42.08 27.06 43.62 27.06C45.13 27.06 46.1 25.8 46.1 23.79C46.1 21.85 45.16 20.39 43.62 20.39C42.07 20.39 41.14 21.86 41.14 23.79Z" fill="#1D1E1C" fill-opacity="1.000000" fill-rule="evenodd"/>
	<rect id="button" rx="23.000000" width="86.000000" height="46.000000" transform="translate(0.500000 0.000000)" stroke="#1D1E1C" stroke-opacity="1.000000" stroke-width="1.000000"/>
</svg>
