<svg width="62.000000" height="47.000000" viewBox="0 0 62 47" fill="none" xmlns="http://www.w3.org/2000/svg" xmlns:xlink="http://www.w3.org/1999/xlink">
	<desc>
			Created with Pixso.
	</desc>
	<defs>
		<clipPath id="clip3_768">
			<rect id="List" width="32.000000" height="32.000000" transform="translate(15.000000 7.000000)" fill="white" fill-opacity="0"/>
		</clipPath>
	</defs>
	<rect id="cowork-button" rx="23.000000" width="61.000000" height="46.000000" transform="translate(0.500000 0.000000)" fill="#1D1E1C" fill-opacity="1.000000"/>
	<rect id="List" width="32.000000" height="32.000000" transform="translate(15.000000 7.000000)" fill="#FFFFFF" fill-opacity="0"/>
	<g clip-path="url(#clip3_768)">
		<path id="Vector" d="M43 23C43 23.26 42.89 23.51 42.7 23.7C42.51 23.89 42.26 24 42 24L20 24C19.73 24 19.48 23.89 19.29 23.7C19.1 23.51 19 23.26 19 23C19 22.73 19.1 22.48 19.29 22.29C19.48 22.1 19.73 22 20 22L42 22C42.26 22 42.51 22.1 42.7 22.29C42.89 22.48 43 22.73 43 23ZM20 16L42 16C42.26 16 42.51 15.89 42.7 15.7C42.89 15.51 43 15.26 43 15C43 14.73 42.89 14.48 42.7 14.29C42.51 14.1 42.26 14 42 14L20 14C19.73 14 19.48 14.1 19.29 14.29C19.1 14.48 19 14.73 19 15C19 15.26 19.1 15.51 19.29 15.7C19.48 15.89 19.73 16 20 16ZM42 30L20 30C19.73 30 19.48 30.1 19.29 30.29C19.1 30.48 19 30.73 19 31C19 31.26 19.1 31.51 19.29 31.7C19.48 31.89 19.73 32 20 32L42 32C42.26 32 42.51 31.89 42.7 31.7C42.89 31.51 43 31.26 43 31C43 30.73 42.89 30.48 42.7 30.29C42.51 30.1 42.26 30 42 30Z" fill="#FFFFFF" fill-opacity="1.000000" fill-rule="nonzero"/>
	</g>
	<rect id="cowork-button" rx="23.000000" width="61.000000" height="46.000000" transform="translate(0.500000 0.000000)" stroke="#1D1E1C" stroke-opacity="1.000000" stroke-width="1.000000"/>
</svg>
