<svg width="87.000000" height="47.000000" viewBox="0 0 87 47" fill="none" xmlns="http://www.w3.org/2000/svg" xmlns:xlink="http://www.w3.org/1999/xlink">
	<desc>
			Created with Pixso.
	</desc>
	<defs/>
	<rect id="button" rx="23.000000" width="86.000000" height="46.000000" transform="translate(0.500000 0.500000)" fill="#FFFFFF" fill-opacity="1.000000"/>
	<path id="Claim Your Spot" d="M31.68 28L26.33 28L26.33 18.1L26.79 18.1L26.79 27.56L31.68 27.56L31.68 28ZM52.17 18.1L52.63 18.1L52.63 28L52.17 28L52.17 18.1ZM39.31 24.3C39.31 26.52 37.97 28.15 36.18 28.15C34.39 28.15 33.06 26.52 33.06 24.3C33.06 22.09 34.39 20.46 36.18 20.46C37.97 20.46 39.31 22.1 39.31 24.3ZM46.54 28.16C46.54 30 45.43 30.93 43.71 30.93C42.37 30.93 41.22 30.4 40.96 29.24L41.44 29.24C41.66 30.1 42.6 30.51 43.71 30.51C45.22 30.51 46.1 29.75 46.1 28.15L46.1 26.22L46.05 26.22C45.69 27.33 44.75 27.98 43.6 27.98C41.85 27.98 40.69 26.49 40.69 24.29C40.69 22.06 41.83 20.46 43.6 20.46C44.83 20.46 45.68 21.24 46.06 22.35L46.1 22.35L46.1 20.57L46.54 20.57L46.54 28.16ZM57.75 20.9C56.47 20.9 55.55 21.79 55.55 23.09L55.55 28L55.1 28L55.1 20.57L55.54 20.57L55.54 21.75L55.59 21.75C55.93 20.98 56.77 20.48 57.81 20.48C59.3 20.48 60.34 21.5 60.34 23.05L60.34 28L59.89 28L59.89 23.06C59.89 21.77 59.02 20.9 57.75 20.9ZM33.5 24.3C33.5 26.23 34.62 27.72 36.18 27.72C37.75 27.72 38.86 26.23 38.86 24.3C38.86 22.38 37.74 20.89 36.18 20.89C34.62 20.89 33.5 22.38 33.5 24.3ZM41.14 24.29C41.14 26.23 42.08 27.56 43.62 27.56C45.13 27.56 46.1 26.3 46.1 24.29C46.1 22.35 45.16 20.89 43.62 20.89C42.07 20.89 41.14 22.36 41.14 24.29Z" fill="#1D1E1C" fill-opacity="1.000000" fill-rule="evenodd"/>
	<rect id="button" rx="23.000000" width="86.000000" height="46.000000" transform="translate(0.500000 0.500000)" stroke="#1D1E1C" stroke-opacity="1.000000" stroke-width="1.000000"/>
</svg>
