<svg width="97.000000" height="47.000000" viewBox="0 0 97 47" fill="none" xmlns="http://www.w3.org/2000/svg" xmlns:xlink="http://www.w3.org/1999/xlink">
	<desc>
			Created with Pixso.
	</desc>
	<defs/>
	<rect id="button" rx="23.000000" width="96.000000" height="46.000000" transform="translate(0.500000 0.500000)" fill="#1D1E1C" fill-opacity="1.000000"/>
	<path id="Claim Your Spot" d="M32.1 20.57L31.65 20.57C31.56 19.27 30.57 18.37 29.1 18.37C27.61 18.37 26.54 19.27 26.54 20.52C26.54 21.53 27.28 22.17 28.59 22.57L29.7 22.91C31.31 23.39 32.24 24.14 32.24 25.45C32.24 27.01 30.96 28.16 29.01 28.16C27.16 28.16 25.95 27.12 25.86 25.63L26.31 25.63C26.4 26.89 27.46 27.72 29.01 27.72C30.67 27.72 31.79 26.81 31.79 25.45C31.79 24.4 31.09 23.8 29.58 23.33L28.44 22.99C26.88 22.51 26.09 21.71 26.09 20.53C26.09 19.04 27.37 17.95 29.1 17.95C30.83 17.95 32.01 19.05 32.1 20.57ZM62.28 24.63L62.28 18.1L62.73 18.1L62.73 24.65C62.73 26.66 61.2 28.16 59.12 28.16C57.04 28.16 55.51 26.66 55.51 24.65L55.51 18.1L55.96 18.1L55.96 24.63C55.96 26.41 57.29 27.71 59.12 27.71C60.95 27.71 62.28 26.41 62.28 24.63ZM34.87 18.85C34.87 19.07 34.69 19.23 34.47 19.23C34.26 19.23 34.09 19.07 34.09 18.85C34.09 18.64 34.26 18.47 34.47 18.47C34.69 18.47 34.87 18.64 34.87 18.85ZM42.4 28.16C42.4 30 41.29 30.93 39.57 30.93C38.23 30.93 37.08 30.4 36.82 29.24L37.3 29.24C37.52 30.1 38.46 30.51 39.57 30.51C41.07 30.51 41.96 29.75 41.96 28.15L41.96 26.22L41.91 26.22C41.55 27.33 40.61 27.98 39.46 27.98C37.71 27.98 36.55 26.49 36.55 24.29C36.55 22.06 37.68 20.46 39.46 20.46C40.69 20.46 41.54 21.24 41.92 22.35L41.96 22.35L41.96 20.57L42.4 20.57L42.4 28.16ZM65.64 30.78L65.19 30.78L65.19 20.57L65.63 20.57L65.63 22.35L65.68 22.35C66.07 21.25 66.91 20.46 68.14 20.46C69.92 20.46 71.06 22.09 71.06 24.3C71.06 26.52 69.91 28.15 68.14 28.15C66.93 28.15 66.05 27.37 65.68 26.25L65.64 26.25L65.64 30.78ZM47.33 20.9C46.05 20.9 45.13 21.79 45.13 23.09L45.13 28L44.68 28L44.68 20.57L45.12 20.57L45.12 21.75L45.17 21.75C45.52 20.98 46.35 20.48 47.39 20.48C48.88 20.48 49.92 21.5 49.92 23.05L49.92 28L49.47 28L49.47 23.06C49.47 21.77 48.61 20.9 47.33 20.9ZM34.69 28L34.25 28L34.25 20.57L34.69 20.57L34.69 28ZM37 24.29C37 26.23 37.94 27.56 39.47 27.56C40.99 27.56 41.96 26.3 41.96 24.29C41.96 22.35 41.02 20.89 39.47 20.89C37.93 20.89 37 22.36 37 24.29ZM68.12 20.89C66.57 20.89 65.64 22.35 65.64 24.3C65.64 26.26 66.58 27.72 68.12 27.72C69.66 27.72 70.6 26.25 70.6 24.3C70.6 22.36 69.67 20.89 68.12 20.89Z" fill="#FFFFFF" fill-opacity="1.000000" fill-rule="evenodd"/>
	<rect id="button" rx="23.000000" width="96.000000" height="46.000000" transform="translate(0.500000 0.500000)" stroke="#1D1E1C" stroke-opacity="1.000000" stroke-width="1.000000"/>
</svg>
