<svg width="97.000000" height="47.000000" viewBox="0 0 97 47" fill="none" xmlns="http://www.w3.org/2000/svg" xmlns:xlink="http://www.w3.org/1999/xlink">
	<desc>
			Created with Pixso.
	</desc>
	<defs/>
	<rect id="button" rx="23.000000" width="96.000000" height="46.000000" transform="translate(0.500000 0.000000)" fill="#1D1E1C" fill-opacity="1.000000"/>
	<path id="Claim Your Spot" d="M32.1 20.07L31.65 20.07C31.56 18.77 30.57 17.87 29.1 17.87C27.61 17.87 26.54 18.77 26.54 20.02C26.54 21.03 27.28 21.67 28.59 22.07L29.7 22.41C31.31 22.89 32.24 23.64 32.24 24.95C32.24 26.51 30.96 27.66 29.01 27.66C27.16 27.66 25.95 26.62 25.86 25.13L26.31 25.13C26.4 26.39 27.46 27.22 29.01 27.22C30.67 27.22 31.79 26.31 31.79 24.95C31.79 23.9 31.09 23.3 29.58 22.83L28.44 22.49C26.88 22.01 26.09 21.21 26.09 20.03C26.09 18.54 27.37 17.45 29.1 17.45C30.83 17.45 32.01 18.55 32.1 20.07ZM62.28 24.13L62.28 17.6L62.73 17.6L62.73 24.15C62.73 26.16 61.2 27.66 59.12 27.66C57.04 27.66 55.51 26.16 55.51 24.15L55.51 17.6L55.96 17.6L55.96 24.13C55.96 25.91 57.29 27.21 59.12 27.21C60.95 27.21 62.28 25.91 62.28 24.13ZM34.87 18.35C34.87 18.57 34.69 18.73 34.47 18.73C34.26 18.73 34.09 18.57 34.09 18.35C34.09 18.14 34.26 17.97 34.47 17.97C34.69 17.97 34.87 18.14 34.87 18.35ZM42.4 27.66C42.4 29.5 41.29 30.43 39.57 30.43C38.23 30.43 37.08 29.9 36.82 28.74L37.3 28.74C37.52 29.6 38.46 30.01 39.57 30.01C41.07 30.01 41.96 29.25 41.96 27.65L41.96 25.72L41.91 25.72C41.55 26.83 40.61 27.48 39.46 27.48C37.71 27.48 36.55 25.99 36.55 23.79C36.55 21.56 37.68 19.96 39.46 19.96C40.69 19.96 41.54 20.74 41.92 21.85L41.96 21.85L41.96 20.07L42.4 20.07L42.4 27.66ZM65.64 30.28L65.19 30.28L65.19 20.07L65.63 20.07L65.63 21.85L65.68 21.85C66.07 20.75 66.91 19.96 68.14 19.96C69.92 19.96 71.06 21.59 71.06 23.8C71.06 26.02 69.91 27.65 68.14 27.65C66.93 27.65 66.05 26.87 65.68 25.75L65.64 25.75L65.64 30.28ZM47.33 20.4C46.05 20.4 45.13 21.29 45.13 22.59L45.13 27.5L44.68 27.5L44.68 20.07L45.12 20.07L45.12 21.25L45.17 21.25C45.52 20.48 46.35 19.98 47.39 19.98C48.88 19.98 49.92 21 49.92 22.55L49.92 27.5L49.47 27.5L49.47 22.56C49.47 21.27 48.61 20.4 47.33 20.4ZM34.69 27.5L34.25 27.5L34.25 20.07L34.69 20.07L34.69 27.5ZM37 23.79C37 25.73 37.94 27.06 39.47 27.06C40.99 27.06 41.96 25.8 41.96 23.79C41.96 21.85 41.02 20.39 39.47 20.39C37.93 20.39 37 21.86 37 23.79ZM68.12 20.39C66.57 20.39 65.64 21.85 65.64 23.8C65.64 25.76 66.58 27.22 68.12 27.22C69.66 27.22 70.6 25.75 70.6 23.8C70.6 21.86 69.67 20.39 68.12 20.39Z" fill="#FFFFFF" fill-opacity="1.000000" fill-rule="evenodd"/>
	<rect id="button" rx="23.000000" width="96.000000" height="46.000000" transform="translate(0.500000 0.000000)" stroke="#1D1E1C" stroke-opacity="1.000000" stroke-width="1.000000"/>
</svg>
