<svg width="110.000000" height="47.000000" viewBox="0 0 110 47" fill="none" xmlns="http://www.w3.org/2000/svg" xmlns:xlink="http://www.w3.org/1999/xlink">
	<desc>
			Created with Pixso.
	</desc>
	<defs/>
	<rect id="button" rx="23.000000" width="109.000000" height="46.000000" transform="translate(0.500000 0.500000)" fill="#FFFFFF" fill-opacity="1.000000"/>
	<path id="Claim Your Spot" d="M32.1 20.57L31.65 20.57C31.56 19.27 30.57 18.37 29.1 18.37C27.61 18.37 26.54 19.27 26.54 20.52C26.54 21.53 27.28 22.17 28.59 22.57L29.7 22.91C31.31 23.39 32.24 24.14 32.24 25.45C32.24 27.01 30.96 28.16 29.01 28.16C27.16 28.16 25.95 27.12 25.86 25.63L26.31 25.63C26.4 26.89 27.46 27.72 29.01 27.72C30.67 27.72 31.79 26.81 31.79 25.45C31.79 24.4 31.09 23.8 29.58 23.33L28.44 22.99C26.88 22.51 26.09 21.71 26.09 20.53C26.09 19.04 27.37 17.95 29.1 17.95C30.83 17.95 32.01 19.05 32.1 20.57ZM42.34 28L41.91 28L41.91 18.1L42.36 18.1L42.36 22.35L42.4 22.35C42.77 21.24 43.64 20.46 44.86 20.46C46.62 20.46 47.77 22.09 47.77 24.3C47.77 26.52 46.64 28.15 44.86 28.15C43.63 28.15 42.78 27.35 42.4 26.25L42.34 26.25L42.34 28ZM70.97 28L70.54 28L70.54 18.1L70.99 18.1L70.99 22.35L71.03 22.35C71.4 21.24 72.27 20.46 73.49 20.46C75.25 20.46 76.4 22.09 76.4 24.3C76.4 26.52 75.27 28.15 73.49 28.15C72.26 28.15 71.41 27.35 71.03 26.25L70.97 26.25L70.97 28ZM68.21 18.85C68.21 19.07 68.03 19.23 67.82 19.23C67.61 19.23 67.43 19.07 67.43 18.85C67.43 18.64 67.61 18.47 67.82 18.47C68.03 18.47 68.21 18.64 68.21 18.85ZM54.17 22.23L53.72 22.23C53.54 21.39 52.84 20.89 51.83 20.87C50.7 20.87 49.91 21.51 49.91 22.43C49.91 23.16 50.4 23.67 51.38 23.92L52.53 24.21C53.66 24.48 54.24 25.16 54.24 26.09C54.24 27.3 53.24 28.15 51.7 28.15C50.29 28.15 49.37 27.45 49.18 26.22L49.65 26.22C49.82 27.2 50.55 27.74 51.7 27.74C52.95 27.74 53.79 27.09 53.79 26.11C53.79 25.38 53.34 24.85 52.39 24.63L51.25 24.34C50.07 24.06 49.47 23.39 49.47 22.44C49.47 21.27 50.44 20.45 51.83 20.46C53.13 20.46 53.98 21.19 54.17 22.23ZM61.51 25.82C61.29 27.22 60.2 28.15 58.81 28.15C56.95 28.15 55.65 26.5 55.65 24.3C55.65 22.12 56.96 20.46 58.79 20.46C60.16 20.46 61.28 21.39 61.5 22.75L61.03 22.75C60.84 21.65 59.94 20.89 58.81 20.89C57.25 20.89 56.08 22.32 56.08 24.3C56.08 26.23 57.19 27.72 58.81 27.72C59.94 27.72 60.87 26.98 61.05 25.82L61.51 25.82ZM83.77 26.44C83.47 27.24 82.53 28.15 81.06 28.15C79.08 28.15 77.8 26.5 77.8 24.3C77.8 22.1 79.12 20.46 80.91 20.46C82.61 20.46 83.98 21.95 83.98 24L83.98 24.34L78.23 24.34C78.25 26.22 79.29 27.72 81.06 27.72C82.35 27.72 83.05 26.91 83.29 26.44L83.77 26.44ZM63.77 28L63.32 28L63.32 20.57L63.75 20.57L63.75 21.75L63.81 21.75C64.14 20.97 64.99 20.48 65.98 20.48L66.2 20.48L66.2 20.91L65.97 20.91C64.68 20.91 63.77 21.8 63.77 23.06L63.77 28ZM36.79 27.65C38.02 27.65 39 26.78 39 25.47L39 20.57L39.43 20.57L39.43 28L39 28L39 26.81L38.95 26.81C38.6 27.57 37.76 28.09 36.73 28.09C35.25 28.09 34.21 27.07 34.21 25.52L34.21 20.57L34.66 20.57L34.66 25.51C34.66 26.78 35.54 27.65 36.79 27.65ZM68.03 28L67.6 28L67.6 20.57L68.03 20.57L68.03 28ZM44.83 20.89C43.3 20.89 42.36 22.35 42.36 24.3C42.36 26.26 43.3 27.72 44.83 27.72C46.39 27.72 47.32 26.25 47.32 24.3C47.32 22.36 46.38 20.89 44.83 20.89ZM73.46 20.89C71.93 20.89 70.99 22.35 70.99 24.3C70.99 26.26 71.93 27.72 73.46 27.72C75.02 27.72 75.95 26.25 75.95 24.3C75.95 22.36 75.01 20.89 73.46 20.89ZM80.91 20.89C79.48 20.89 78.34 22.18 78.25 23.92L83.52 23.92C83.52 22.23 82.38 20.89 80.91 20.89Z" fill="#1D1E1C" fill-opacity="1.000000" fill-rule="evenodd"/>
	<rect id="button" rx="23.000000" width="109.000000" height="46.000000" transform="translate(0.500000 0.500000)" stroke="#1D1E1C" stroke-opacity="1.000000" stroke-width="1.000000"/>
</svg>
