<svg width="47.000000" height="27.000000" viewBox="0 0 47 27" fill="none" xmlns="http://www.w3.org/2000/svg" xmlns:xlink="http://www.w3.org/1999/xlink">
	<desc>
			Created with Pixso.
	</desc>
	<defs/>
	<path id="Vector" d="M25.33 4C25.33 3.6 25.49 3.22 25.77 2.93C26.05 2.65 26.43 2.5 26.83 2.5L44.83 2.5C45.23 2.5 45.61 2.65 45.89 2.93C46.17 3.22 46.33 3.6 46.33 4C46.33 4.39 46.17 4.77 45.89 5.06C45.61 5.34 45.23 5.5 44.83 5.5L26.83 5.5C26.43 5.5 26.05 5.34 25.77 5.06C25.49 4.77 25.33 4.39 25.33 4ZM44.83 11.5L26.83 11.5C26.43 11.5 26.05 11.65 25.77 11.93C25.49 12.22 25.33 12.6 25.33 13C25.33 13.39 25.49 13.77 25.77 14.06C26.05 14.34 26.43 14.5 26.83 14.5L44.83 14.5C45.23 14.5 45.61 14.34 45.89 14.06C46.17 13.77 46.33 13.39 46.33 13C46.33 12.6 46.17 12.22 45.89 11.93C45.61 11.65 45.23 11.5 44.83 11.5ZM44.83 20.5L31.33 20.5C30.93 20.5 30.55 20.65 30.27 20.93C29.99 21.22 29.83 21.6 29.83 22C29.83 22.39 29.99 22.77 30.27 23.06C30.55 23.34 30.93 23.5 31.33 23.5L44.83 23.5C45.23 23.5 45.61 23.34 45.89 23.06C46.17 22.77 46.33 22.39 46.33 22C46.33 21.6 46.17 21.22 45.89 20.93C45.61 20.65 45.23 20.5 44.83 20.5ZM18.82 15.62C20.31 14.47 21.4 12.89 21.94 11.09C22.49 9.29 22.45 7.37 21.85 5.59C21.24 3.81 20.1 2.27 18.57 1.17C17.04 0.08 15.21 -0.51 13.33 -0.51C11.45 -0.51 9.62 0.08 8.09 1.17C6.56 2.27 5.41 3.81 4.81 5.59C4.2 7.37 4.17 9.29 4.71 11.09C5.26 12.89 6.35 14.47 7.84 15.62C3.97 17.26 0.92 20.55 -0.12 24.62C-0.18 24.84 -0.19 25.07 -0.14 25.3C-0.1 25.52 0 25.73 0.14 25.91C0.28 26.09 0.46 26.24 0.67 26.34C0.87 26.44 1.1 26.5 1.33 26.5L25.33 26.5C25.56 26.5 25.78 26.44 25.99 26.34C26.19 26.24 26.37 26.09 26.51 25.91C26.66 25.73 26.75 25.52 26.8 25.3C26.84 25.07 26.84 24.84 26.78 24.62C25.73 20.55 22.69 17.26 18.82 15.62Z" fill="#1D1E1C" fill-opacity="1.000000" fill-rule="nonzero"/>
</svg>
