<svg width="42.000000" height="30.000000" viewBox="0 0 42 30" fill="none" xmlns="http://www.w3.org/2000/svg" xmlns:xlink="http://www.w3.org/1999/xlink">
	<desc>
			Created with Pixso.
	</desc>
	<defs/>
	<path id="Vector" d="M39 0L3 0C2.2 0 1.44 0.31 0.87 0.87C0.31 1.44 0 2.2 0 3L0 27C0 27.79 0.31 28.55 0.87 29.12C1.44 29.68 2.2 30 3 30L39 30C39.79 30 40.55 29.68 41.12 29.12C41.68 28.55 42 27.79 42 27L42 3C42 2.2 41.68 1.44 41.12 0.87C40.55 0.31 39.79 0 39 0ZM22.5 24L19.5 24C19.1 24 18.72 23.84 18.43 23.56C18.15 23.27 18 22.89 18 22.5C18 22.1 18.15 21.72 18.43 21.43C18.72 21.15 19.1 21 19.5 21L22.5 21C22.89 21 23.27 21.15 23.56 21.43C23.84 21.72 24 22.1 24 22.5C24 22.89 23.84 23.27 23.56 23.56C23.27 23.84 22.89 24 22.5 24ZM34.5 24L28.5 24C28.1 24 27.72 23.84 27.43 23.56C27.15 23.27 27 22.89 27 22.5C27 22.1 27.15 21.72 27.43 21.43C27.72 21.15 28.1 21 28.5 21L34.5 21C34.89 21 35.27 21.15 35.56 21.43C35.84 21.72 36 22.1 36 22.5C36 22.89 35.84 23.27 35.56 23.56C35.27 23.84 34.89 24 34.5 24ZM3 7.5L3 3L39 3L39 7.5L3 7.5Z" fill="#1D1E1C" fill-opacity="1.000000" fill-rule="nonzero"/>
</svg>
