<svg width="21.000000" height="21.000000" viewBox="0 0 21 21" fill="none" xmlns="http://www.w3.org/2000/svg" xmlns:xlink="http://www.w3.org/1999/xlink">
	<desc>
			Created with Pixso.
	</desc>
	<defs/>
	<path id="Vector" d="M19.7 18.29C19.8 18.38 19.87 18.49 19.92 18.61C19.97 18.73 20 18.86 20 19C20 19.13 19.97 19.26 19.92 19.38C19.87 19.5 19.8 19.61 19.7 19.7C19.61 19.8 19.5 19.87 19.38 19.92C19.26 19.97 19.13 20 19 20C18.86 20 18.73 19.97 18.61 19.92C18.49 19.87 18.38 19.8 18.29 19.7L10 11.41L1.7 19.7C1.51 19.89 1.26 20 1 20C0.73 20 0.48 19.89 0.29 19.7C0.1 19.52 -0.01 19.26 -0.01 19C-0.01 18.73 0.1 18.48 0.29 18.29L8.58 10L0.29 1.7C0.1 1.52 -0.01 1.26 -0.01 1C-0.01 0.73 0.1 0.47 0.29 0.29C0.48 0.1 0.73 -0.01 1 -0.01C1.26 -0.01 1.51 0.1 1.7 0.29L10 8.58L18.29 0.29C18.48 0.1 18.73 -0.01 19 -0.01C19.26 -0.01 19.51 0.1 19.7 0.29C19.89 0.47 20 0.73 20 1C20 1.26 19.89 1.52 19.7 1.7L11.41 10L19.7 18.29Z" fill="#FFFFFF" fill-opacity="1.000000" fill-rule="nonzero"/>
</svg>
